# xmcd
#
# Track frame offsets:
#  150
#  18753
#  41558
#  66848
#  84663
#  100995
#  120185
#  136203
#  150975
#  178528
#  198268
#  218418
#
# Disc length: 3114 seconds
#
# Revision: 0
# Processed by: cddbd v1.5.1PL2 Copyright (c) Steve Scherf et al.
# Submitted via: Collectorz.com_Music_Collector 6.11
#
DISCID=8c0c280c
DTITLE=Lady Blue - Shady Lady
DYEAR=1996
DGENRE=Blues
TTITLE0=Shady Lady
TTITLE1=Sock And Go
TTITLE2=Can't See The Wall
TTITLE3=You Make Me Feel So Good
TTITLE4=Wind Benaeth My Wings
TTITLE5=Your Man And Mine
TTITLE6=Don't Mess With My Man
TTITLE7=If You Hadn't Been Drinkin'
TTITLE8=Straight Up Tell Me
TTITLE9=Gonna Break Your Plate
TTITLE10=Don't Feel The Love No More
TTITLE11=It Hurts Me Too
EXTD=
EXTT0=
EXTT1=
EXTT2=
EXTT3=
EXTT4=
EXTT5=
EXTT6=
EXTT7=
EXTT8=
EXTT9=
EXTT10=
EXTT11=
PLAYORDER=
